<?xml version="1.0" encoding="utf-8"?>
<!-- Generator: Adobe Illustrator 21.0.0, SVG Export Plug-In . SVG Version: 6.00 Build 0)  -->
<svg version="1.1" id="object" xmlns="http://www.w3.org/2000/svg" xmlns:xlink="http://www.w3.org/1999/xlink" x="0px" y="0px"
	 width="2000px" height="2000px" viewBox="0 0 2000 2000" enable-background="new 0 0 2000 2000" xml:space="preserve">
<g>
	<path fill="#1671BA" d="M1855.8,638.2c-45.9-21-118.7-41-193.7-7.8c-124.2,54.9-257.9,117-420.3,20.3S1072.2,419,895.5,439.3
		c-112.8,13-208,98.9-302.2,168.6c25.6,18.6,42.1,48.9,42.1,83c0,34.5-17,65.1-43.2,83.7c1.6-0.1,3.1-0.1,4.7-0.1
		c55.1,0,100,43.3,102.7,97.6c0.1,1.7,0.1,3.5,0.1,5.2c0,32.3-14.9,61.1-38.2,80c43.1,3.7,76.8,39.8,76.8,83.8
		c0,46.5-37.7,84.2-84.2,84.2c-20.4,0-39.2-7.2-53.7-19.3c-5.4,38.8-29.6,71.7-63.1,89c-16.4,8.6-35,13.4-54.8,13.4
		c-18,0-35-4-50.3-11.2c-40.6-19-68.8-60.2-68.8-108c0-2,0.1-4.1,0.1-6.1c-15.2,21.3-40.2,35.2-68.3,35.2
		c-46.5,0-84.2-37.7-84.2-84.1c0-44.5,34.5-81,78.2-84c-0.6-4.6-1-9.3-1-14.1c0-12.8,2.4-25.1,6.6-36.4c-4.3-8.6-7.5-17.9-9.2-27.7
		c-1-5.9-1.6-11.9-1.6-18.1c0-49.2,34.5-90.3,80.7-100.4c-11.5-12.5-19.9-27.9-24.1-45c-80.4,6.8-157.5,0.9-203.1-4.4
		c-22.4-2.6-42.1,14.9-42.1,37.5v753.6c0,46.5,37.7,84.2,84.2,84.2h1640.5c46.5,0,84.2-37.7,84.2-84.2V714.3
		C1904.4,681.7,1885.5,651.8,1855.8,638.2z M1133.2,929.8c0,28.2-22.9,50.9-51,50.9c-12.3,0-23.7-4.4-32.5-11.7
		c-3.2,23.5-17.9,43.4-38.2,53.9c-10,5.2-21.2,8.1-33.2,8.1c-10.9,0-21.2-2.4-30.4-6.8c-24.6-11.5-41.7-36.4-41.7-65.3
		c0-1.2,0.1-2.5,0.1-3.7c-9.2,12.9-24.4,21.3-41.4,21.3c-28.2,0-51-22.9-51-50.9c0-26.9,20.9-49,47.4-50.9c-0.1-0.9-0.2-1.7-0.3-2.7
		c-0.2-1.9-0.3-3.9-0.3-5.9c0-7.7,1.4-15.2,3.9-22.1c-4.2-8.3-6.5-17.7-6.5-27.7c0-29.8,20.9-54.7,48.9-60.8
		c-10.2-11-16.3-25.9-16.3-42.1c0-27.6,18-51.1,42.9-59.2c-8.3-10.5-13.2-23.9-13.2-38.3c0-34.4,27.9-62.3,62.3-62.3
		c34.5,0,62.3,27.9,62.3,62.3c0,16.4-6.3,31.3-16.8,42.4c24.8,8.2,42.6,31.6,42.6,59.1c0,20.9-10.3,39.4-26.1,50.7
		c0.9-0.1,1.9-0.1,2.8-0.1c34.4,0,62.3,27.9,62.3,62.3c0,15.9-6,30.4-15.8,41.5c-2.2,2.5-4.7,4.8-7.3,6.9
		C1112.8,881.3,1133.2,903.2,1133.2,929.8z"/>
	<path fill="#337DC0" d="M340.8,708.7c4.2,17,12.6,32.5,24.1,45c-46.2,10.1-80.7,51.2-80.7,100.4c0,6.2,0.6,12.2,1.6,18.1H95.6
		V741.8c0-22.6,19.7-40,42.1-37.5C183.3,709.5,260.4,715.5,340.8,708.7z"/>
	<path fill="#337DC0" d="M1904.4,714.3v157.8H1094c9.8-11,15.8-25.6,15.8-41.5c0-34.4-27.9-62.3-62.3-62.3c-0.9,0-1.9,0-2.8,0.1
		c15.8-11.3,26.1-29.8,26.1-50.7c0-27.5-17.8-50.9-42.6-59.1c10.5-11.1,16.8-26,16.8-42.4c0-34.4-27.9-62.3-62.3-62.3
		c-34.4,0-62.3,27.9-62.3,62.3c0,14.4,4.9,27.7,13.2,38.3c-24.9,8.1-42.9,31.6-42.9,59.2c0,16.2,6.2,31,16.3,42.1
		c-28,6.2-48.9,31-48.9,60.8c0,10,2.4,19.3,6.5,27.7c-2.5,6.9-3.9,14.3-3.9,22.1c0,2,0.1,3.9,0.3,5.9H699.6
		c-2.7-54.4-47.6-97.6-102.7-97.6c-1.6,0-3.1,0-4.7,0.1c26.1-18.6,43.2-49.2,43.2-83.7c0-34-16.5-64.3-42.1-83
		c94.2-69.8,189.5-155.7,302.2-168.6c176.7-20.3,183.8,114.6,346.2,211.3s296.1,34.7,420.3-20.3c75-33.2,147.8-13.2,193.7,7.8
		C1885.5,651.8,1904.4,681.7,1904.4,714.3z"/>
	<path fill="#6DC8CD" d="M738.4,1041.2c0,46.5-37.7,84.2-84.2,84.2c-20.4,0-39.2-7.2-53.7-19.3c-5.4,38.8-29.6,71.7-63.1,89
		c-16.4,8.6-35,13.4-54.8,13.4c-18,0-35-4-50.3-11.2c-40.6-19-68.8-60.2-68.8-108c0-2,0.1-4.1,0.1-6.1
		c-15.2,21.3-40.2,35.2-68.3,35.2c-46.5,0-84.2-37.7-84.2-84.1c0-44.5,34.5-81,78.2-84c-0.6-4.6-1-9.3-1-14.1
		c0-12.8,2.4-25.1,6.6-36.4c-4.3-8.6-7.5-17.9-9.2-27.7c-1-5.9-1.6-11.9-1.6-18.1c0-49.2,34.5-90.3,80.7-100.4
		c-11.5-12.5-19.9-27.9-24.1-45c-1.9-7.9-2.9-16-2.9-24.4c0-45.6,29.7-84.4,70.9-97.8c-13.7-17.4-21.8-39.3-21.8-63.2
		c0-56.8,46.1-102.9,102.9-102.9c56.8,0,102.9,46.1,102.9,102.9c0,27.2-10.5,51.7-27.7,70.1c10.2,3.4,19.8,8.4,28.2,14.6
		c25.6,18.6,42.1,48.9,42.1,83c0,34.5-17,65.1-43.2,83.7c1.6-0.1,3.1-0.1,4.7-0.1c55.1,0,100,43.3,102.7,97.6
		c0.1,1.7,0.1,3.5,0.1,5.2c0,32.3-14.9,61.1-38.2,80C704.6,961.1,738.4,997.2,738.4,1041.2z"/>
	<path fill="#D3CCC5" d="M537.4,1195v384.6H432.3v-382.3c15.3,7.2,32.3,11.2,50.3,11.2C502.3,1208.4,520.9,1203.6,537.4,1195z"/>
	<path fill="#EAE6E1" d="M537.4,1228.2v351.4h-81.2v-299.1c0-27.2,22.5-48.3,49.8-48.2c0.2,0,0.4,0,0.5,0
		C517.2,1232.3,527.5,1230.9,537.4,1228.2z"/>
	<path fill="#6DC8CD" d="M1133.2,929.8c0,28.2-22.9,50.9-51,50.9c-12.3,0-23.7-4.4-32.5-11.7c-3.2,23.5-17.9,43.4-38.2,53.9
		c-10,5.2-21.2,8.1-33.2,8.1c-10.9,0-21.2-2.4-30.4-6.8c-24.6-11.5-41.7-36.4-41.7-65.3c0-1.2,0.1-2.5,0.1-3.7
		c-9.2,12.9-24.4,21.3-41.4,21.3c-28.2,0-51-22.9-51-50.9c0-26.9,20.9-49,47.4-50.9c-0.1-0.9-0.2-1.7-0.3-2.7
		c-0.2-1.9-0.3-3.9-0.3-5.9c0-7.7,1.4-15.2,3.9-22.1c-4.2-8.3-6.5-17.7-6.5-27.7c0-29.8,20.9-54.7,48.9-60.8
		c-10.2-11-16.3-25.9-16.3-42.1c0-27.6,18-51.1,42.9-59.2c-8.3-10.5-13.2-23.9-13.2-38.3c0-34.4,27.9-62.3,62.3-62.3
		c34.5,0,62.3,27.9,62.3,62.3c0,16.4-6.3,31.3-16.8,42.4c24.8,8.2,42.6,31.6,42.6,59.1c0,20.9-10.3,39.4-26.1,50.7
		c0.9-0.1,1.9-0.1,2.8-0.1c34.4,0,62.3,27.9,62.3,62.3c0,15.9-6,30.4-15.8,41.5c-2.2,2.5-4.7,4.8-7.3,6.9
		C1112.8,881.3,1133.2,903.2,1133.2,929.8z"/>
	<path fill="#D3CCC5" d="M1011.5,1023v232.8h-63.6v-231.5c9.2,4.4,19.6,6.8,30.4,6.8C990.3,1031.1,1001.5,1028.2,1011.5,1023z"/>
	<path fill="#EAE6E1" d="M1011.5,1046.5v209.4H965v-178.6c0-16.5,13.7-29.1,30.1-29c0.1,0,0.2,0,0.3,0
		C1000.9,1048.2,1006.3,1047.7,1011.5,1046.5z"/>
	<path fill="#8FB6DD" d="M1904.4,872.2v406.6h-659.1c-28.7,0-51.9-23.3-51.9-51.9v-60.9c0-29.1,24-51.3,53.1-52
		c13.9-0.3,26.4-6,35.5-15.2c9.5-9.5,15.3-22.4,15.3-36.8v-48.4c0-29.1-24-51.3-53.1-52c-13.9-0.3-26.4-6-35.5-15.2
		c-3.6-3.6-6.7-7.7-9-12.2c-4-7.3-6.2-15.6-6.2-24.5v-37.6H1904.4z"/>
	<path fill="#D0E1F1" d="M1842.3,1117.5v161.2h-597c-28.7,0-51.9-23.3-51.9-51.9v-60.9c0-29.1,24-51.3,53.1-52
		c13.9-0.3,26.4-6,35.5-15.2c9.5-9.5,15.3-22.4,15.3-36.8v-48.4c0-29.1-24-51.3-53.1-52c-13.9-0.3-26.4-6-35.5-15.2
		c-3.6-3.6-6.7-7.7-9-12.2h459.4C1760.3,934.3,1842.3,1016.3,1842.3,1117.5z"/>
</g>
</svg>
